<?xml version="1.0" encoding="utf-8"?>
<!-- Generator: Adobe Illustrator 16.0.0, SVG Export Plug-In . SVG Version: 6.00 Build 0)  -->
<!DOCTYPE svg PUBLIC "-//W3C//DTD SVG 1.1//EN" "http://www.w3.org/Graphics/SVG/1.1/DTD/svg11.dtd">
<svg version="1.1" id="Layer_1" xmlns="http://www.w3.org/2000/svg" xmlns:xlink="http://www.w3.org/1999/xlink" x="0px" y="0px"
	 width="8px" height="40px" viewBox="0 0 4 13" enable-background="new 0 0 4 13" xml:space="preserve">
<path fill="#010101" d="M3.542,0.06c0.064,0.031,0.102,0.095,0.102,0.161c0,0.025-0.006,0.051-0.018,0.076L0.665,6.5l2.961,6.204
	c0.012,0.023,0.018,0.05,0.018,0.075c0,0.067-0.037,0.13-0.102,0.161c-0.086,0.042-0.191,0.004-0.234-0.084L0.31,6.576
	c-0.002-0.003,0-0.006-0.002-0.009c-0.004-0.011-0.006-0.023-0.01-0.035C0.296,6.521,0.294,6.511,0.294,6.499
	c0-0.01,0.002-0.02,0.004-0.03c0.004-0.012,0.004-0.024,0.01-0.036c0.002-0.002,0-0.006,0.002-0.009l2.998-6.28
	C3.351,0.055,3.456,0.019,3.542,0.06z"/>
</svg>
